<mxfile host="app.diagrams.net" modified="2024-03-08T01:01:10.543Z" agent="Mozilla/5.0 (Windows NT 10.0; Win64; x64) AppleWebKit/537.36 (KHTML, like Gecko) Chrome/122.0.0.0 Safari/537.36" etag="mHisDXbuuVjCXBBrum79" version="24.0.2" type="google">
  <diagram name="Página-1" id="NBkt7IvmojByfJSfpqG8">
    <mxGraphModel dx="-985" dy="-545" grid="1" gridSize="10" guides="1" tooltips="1" connect="1" arrows="1" fold="1" page="1" pageScale="1" pageWidth="827" pageHeight="1169" math="0" shadow="0">
      <root>
        <mxCell id="0" />
        <mxCell id="1" parent="0" />
        <mxCell id="CX8ekr87qEy7F5eOEZGb-689" value="&lt;font style=&quot;font-size: 12px;&quot;&gt;&lt;b style=&quot;border-color: var(--border-color);&quot;&gt;NOTIFICATION CONSUMER&lt;/b&gt;&lt;br style=&quot;border-color: var(--border-color);&quot;&gt;Envia as notificações aos clientes.&lt;br&gt;&lt;/font&gt;" style="rounded=0;whiteSpace=wrap;html=1;fillColor=#dae8fc;strokeColor=#6c8ebf;" parent="1" vertex="1">
          <mxGeometry x="3202" y="1540" width="226" height="100" as="geometry" />
        </mxCell>
        <mxCell id="CX8ekr87qEy7F5eOEZGb-787" value="&lt;b&gt;SERVICE--NOTIFICATION&lt;/b&gt;&lt;div&gt;Java / Spring Boot&lt;b&gt;&lt;br&gt;&lt;/b&gt;&lt;/div&gt;" style="rounded=0;whiteSpace=wrap;html=1;fillColor=#dae8fc;strokeColor=#6c8ebf;" parent="1" vertex="1">
          <mxGeometry x="3200" y="1340" width="232" height="100" as="geometry" />
        </mxCell>
        <mxCell id="CX8ekr87qEy7F5eOEZGb-792" value="&lt;font style=&quot;font-size: 12px;&quot;&gt;&lt;b style=&quot;border-color: var(--border-color);&quot;&gt;NOTIFICATION REPOSITORY&lt;/b&gt;&lt;br style=&quot;border-color: var(--border-color);&quot;&gt;Salva as notificações&lt;br&gt;&lt;/font&gt;" style="rounded=0;whiteSpace=wrap;html=1;fillColor=#dae8fc;strokeColor=#6c8ebf;" parent="1" vertex="1">
          <mxGeometry x="3203" y="1957" width="226" height="100" as="geometry" />
        </mxCell>
        <mxCell id="CX8ekr87qEy7F5eOEZGb-810" value="OBJECT JAVA" style="edgeLabel;html=1;align=center;verticalAlign=middle;resizable=0;points=[];" parent="1" connectable="0" vertex="1">
          <mxGeometry x="2949.9999999999995" y="1930.003333333333" as="geometry">
            <mxPoint x="365" y="-8" as="offset" />
          </mxGeometry>
        </mxCell>
        <mxCell id="CX8ekr87qEy7F5eOEZGb-818" value="&lt;font style=&quot;font-size: 12px;&quot;&gt;&lt;b style=&quot;border-color: var(--border-color);&quot;&gt;NOTIFICATION SERVICE&lt;/b&gt;&lt;br style=&quot;border-color: var(--border-color);&quot;&gt;Envia as notificações aos clientes.&lt;br&gt;&lt;/font&gt;" style="rounded=0;whiteSpace=wrap;html=1;fillColor=#dae8fc;strokeColor=#6c8ebf;" parent="1" vertex="1">
          <mxGeometry x="3202" y="1780" width="226" height="100" as="geometry" />
        </mxCell>
        <mxCell id="CX8ekr87qEy7F5eOEZGb-825" value="" style="endArrow=classic;startArrow=classic;html=1;rounded=0;entryX=0.5;entryY=1;entryDx=0;entryDy=0;exitX=0.5;exitY=0;exitDx=0;exitDy=0;" parent="1" source="CX8ekr87qEy7F5eOEZGb-818" target="CX8ekr87qEy7F5eOEZGb-689" edge="1">
          <mxGeometry width="50" height="50" relative="1" as="geometry">
            <mxPoint x="4099" y="1870" as="sourcePoint" />
            <mxPoint x="4149" y="1820" as="targetPoint" />
          </mxGeometry>
        </mxCell>
        <mxCell id="Ni18-RHiG1lsrnfbKM-f-1" value="OBJECT JAVA" style="edgeLabel;html=1;align=center;verticalAlign=middle;resizable=0;points=[];" parent="CX8ekr87qEy7F5eOEZGb-825" connectable="0" vertex="1">
          <mxGeometry x="-0.0253" relative="1" as="geometry">
            <mxPoint y="-1" as="offset" />
          </mxGeometry>
        </mxCell>
        <mxCell id="CX8ekr87qEy7F5eOEZGb-828" value="" style="endArrow=classic;startArrow=classic;html=1;rounded=0;entryX=0.5;entryY=1;entryDx=0;entryDy=0;exitX=0.5;exitY=0;exitDx=0;exitDy=0;" parent="1" source="CX8ekr87qEy7F5eOEZGb-792" target="CX8ekr87qEy7F5eOEZGb-818" edge="1">
          <mxGeometry width="50" height="50" relative="1" as="geometry">
            <mxPoint x="3639" y="1990" as="sourcePoint" />
            <mxPoint x="3689" y="1940" as="targetPoint" />
          </mxGeometry>
        </mxCell>
        <mxCell id="CX8ekr87qEy7F5eOEZGb-835" value="" style="endArrow=classic;startArrow=classic;html=1;rounded=0;entryX=0.5;entryY=1;entryDx=0;entryDy=0;exitX=0.5;exitY=0;exitDx=0;exitDy=0;" parent="1" source="CX8ekr87qEy7F5eOEZGb-689" target="CX8ekr87qEy7F5eOEZGb-787" edge="1">
          <mxGeometry width="50" height="50" relative="1" as="geometry">
            <mxPoint x="3449" y="1870" as="sourcePoint" />
            <mxPoint x="3499" y="1820" as="targetPoint" />
          </mxGeometry>
        </mxCell>
        <mxCell id="Ni18-RHiG1lsrnfbKM-f-2" value="OBJECT JAVA" style="edgeLabel;html=1;align=center;verticalAlign=middle;resizable=0;points=[];" parent="CX8ekr87qEy7F5eOEZGb-835" connectable="0" vertex="1">
          <mxGeometry x="0.0569" relative="1" as="geometry">
            <mxPoint y="-1" as="offset" />
          </mxGeometry>
        </mxCell>
        <mxCell id="CX8ekr87qEy7F5eOEZGb-836" value="&lt;b&gt;NOTIFICATION DB&lt;/b&gt;" style="shape=cylinder3;whiteSpace=wrap;html=1;boundedLbl=1;backgroundOutline=1;size=15;" parent="1" vertex="1">
          <mxGeometry x="3236" y="2160" width="160" height="130" as="geometry" />
        </mxCell>
        <mxCell id="CX8ekr87qEy7F5eOEZGb-837" value="" style="endArrow=classic;startArrow=classic;html=1;rounded=0;exitX=0.5;exitY=1;exitDx=0;exitDy=0;entryX=0.5;entryY=0;entryDx=0;entryDy=0;entryPerimeter=0;" parent="1" source="CX8ekr87qEy7F5eOEZGb-792" target="CX8ekr87qEy7F5eOEZGb-836" edge="1">
          <mxGeometry width="50" height="50" relative="1" as="geometry">
            <mxPoint x="3300" y="1980" as="sourcePoint" />
            <mxPoint x="3350" y="1930" as="targetPoint" />
          </mxGeometry>
        </mxCell>
        <mxCell id="Ni18-RHiG1lsrnfbKM-f-3" value="LEITURA E ESCRITA" style="edgeLabel;html=1;align=center;verticalAlign=middle;resizable=0;points=[];" parent="CX8ekr87qEy7F5eOEZGb-837" connectable="0" vertex="1">
          <mxGeometry x="0.1232" relative="1" as="geometry">
            <mxPoint y="-1" as="offset" />
          </mxGeometry>
        </mxCell>
        <mxCell id="swX60O9HYar3Z6o1-5GI-1" value="&lt;font style=&quot;font-size: 12px;&quot;&gt;&lt;b style=&quot;border-color: var(--border-color);&quot;&gt;CUSTOMER REPOSITORY&lt;/b&gt;&lt;br style=&quot;border-color: var(--border-color);&quot;&gt;Busca as informações do Cliente&lt;/font&gt;" style="rounded=0;whiteSpace=wrap;html=1;fillColor=#dae8fc;strokeColor=#6c8ebf;" parent="1" vertex="1">
          <mxGeometry x="2895" y="1957" width="226" height="100" as="geometry" />
        </mxCell>
        <mxCell id="swX60O9HYar3Z6o1-5GI-2" value="&lt;b&gt;API--CUSTOMER&lt;/b&gt;&lt;div&gt;Java / Spring Boot&lt;/div&gt;" style="rounded=0;whiteSpace=wrap;html=1;fillColor=#dae8fc;strokeColor=#6c8ebf;" parent="1" vertex="1">
          <mxGeometry x="2895" y="2160" width="226" height="100" as="geometry" />
        </mxCell>
        <mxCell id="swX60O9HYar3Z6o1-5GI-3" value="" style="endArrow=classic;startArrow=classic;html=1;rounded=0;entryX=0.5;entryY=1;entryDx=0;entryDy=0;exitX=0.5;exitY=0;exitDx=0;exitDy=0;" parent="1" source="swX60O9HYar3Z6o1-5GI-2" target="swX60O9HYar3Z6o1-5GI-1" edge="1">
          <mxGeometry width="50" height="50" relative="1" as="geometry">
            <mxPoint x="3100" y="2140" as="sourcePoint" />
            <mxPoint x="3150" y="2090" as="targetPoint" />
          </mxGeometry>
        </mxCell>
        <mxCell id="swX60O9HYar3Z6o1-5GI-4" value="HTTP/JSON" style="edgeLabel;html=1;align=center;verticalAlign=middle;resizable=0;points=[];" parent="swX60O9HYar3Z6o1-5GI-3" connectable="0" vertex="1">
          <mxGeometry x="-0.1179" y="1" relative="1" as="geometry">
            <mxPoint as="offset" />
          </mxGeometry>
        </mxCell>
        <mxCell id="swX60O9HYar3Z6o1-5GI-5" value="" style="endArrow=classic;startArrow=classic;html=1;rounded=0;exitX=0.5;exitY=0;exitDx=0;exitDy=0;" parent="1" source="swX60O9HYar3Z6o1-5GI-1" edge="1">
          <mxGeometry width="50" height="50" relative="1" as="geometry">
            <mxPoint x="3100" y="2140" as="sourcePoint" />
            <mxPoint x="3200" y="1830" as="targetPoint" />
            <Array as="points">
              <mxPoint x="3008" y="1830" />
            </Array>
          </mxGeometry>
        </mxCell>
        <mxCell id="swX60O9HYar3Z6o1-5GI-6" value="OBJECT JAVA" style="edgeLabel;html=1;align=center;verticalAlign=middle;resizable=0;points=[];" parent="swX60O9HYar3Z6o1-5GI-5" connectable="0" vertex="1">
          <mxGeometry x="-0.6135" y="3" relative="1" as="geometry">
            <mxPoint as="offset" />
          </mxGeometry>
        </mxCell>
        <mxCell id="swX60O9HYar3Z6o1-5GI-9" value="&lt;font style=&quot;font-size: 12px;&quot;&gt;&lt;b style=&quot;border-color: var(--border-color);&quot;&gt;LOG REPOSITORY&lt;/b&gt;&lt;br style=&quot;border-color: var(--border-color);&quot;&gt;Salva o log do processamento&lt;br&gt;&lt;/font&gt;" style="rounded=0;whiteSpace=wrap;html=1;fillColor=#dae8fc;strokeColor=#6c8ebf;" parent="1" vertex="1">
          <mxGeometry x="3510" y="1958" width="226" height="100" as="geometry" />
        </mxCell>
        <mxCell id="swX60O9HYar3Z6o1-5GI-11" value="" style="endArrow=classic;startArrow=classic;html=1;rounded=0;exitX=0.5;exitY=1;exitDx=0;exitDy=0;entryX=0.645;entryY=0.012;entryDx=0;entryDy=0;entryPerimeter=0;" parent="1" source="swX60O9HYar3Z6o1-5GI-9" target="CX8ekr87qEy7F5eOEZGb-836" edge="1">
          <mxGeometry width="50" height="50" relative="1" as="geometry">
            <mxPoint x="3607" y="1981" as="sourcePoint" />
            <mxPoint x="3623" y="2161" as="targetPoint" />
            <Array as="points">
              <mxPoint x="3623" y="2140" />
              <mxPoint x="3339" y="2140" />
            </Array>
          </mxGeometry>
        </mxCell>
        <mxCell id="swX60O9HYar3Z6o1-5GI-12" value="ESCRITA" style="edgeLabel;html=1;align=center;verticalAlign=middle;resizable=0;points=[];" parent="swX60O9HYar3Z6o1-5GI-11" connectable="0" vertex="1">
          <mxGeometry x="0.1232" relative="1" as="geometry">
            <mxPoint y="-1" as="offset" />
          </mxGeometry>
        </mxCell>
        <mxCell id="swX60O9HYar3Z6o1-5GI-14" value="" style="endArrow=classic;startArrow=classic;html=1;rounded=0;entryX=1;entryY=0.5;entryDx=0;entryDy=0;exitX=0.5;exitY=0;exitDx=0;exitDy=0;" parent="1" source="swX60O9HYar3Z6o1-5GI-9" target="CX8ekr87qEy7F5eOEZGb-818" edge="1">
          <mxGeometry width="50" height="50" relative="1" as="geometry">
            <mxPoint x="3100" y="2000" as="sourcePoint" />
            <mxPoint x="3150" y="1950" as="targetPoint" />
            <Array as="points">
              <mxPoint x="3623" y="1830" />
            </Array>
          </mxGeometry>
        </mxCell>
        <mxCell id="swX60O9HYar3Z6o1-5GI-15" value="OBJECT JAVA" style="edgeLabel;html=1;align=center;verticalAlign=middle;resizable=0;points=[];" parent="swX60O9HYar3Z6o1-5GI-14" connectable="0" vertex="1">
          <mxGeometry x="-0.6224" y="2" relative="1" as="geometry">
            <mxPoint as="offset" />
          </mxGeometry>
        </mxCell>
        <mxCell id="swX60O9HYar3Z6o1-5GI-16" value="&lt;font style=&quot;font-size: 12px;&quot;&gt;&lt;b style=&quot;border-color: var(--border-color);&quot;&gt;TEMPLATE EMAIL REPOSITORY&lt;/b&gt;&lt;br style=&quot;border-color: var(--border-color);&quot;&gt;Busca o Template para notificação&lt;br&gt;&lt;/font&gt;" style="rounded=0;whiteSpace=wrap;html=1;fillColor=#dae8fc;strokeColor=#6c8ebf;" parent="1" vertex="1">
          <mxGeometry x="3816" y="1958" width="226" height="100" as="geometry" />
        </mxCell>
        <mxCell id="swX60O9HYar3Z6o1-5GI-17" value="" style="endArrow=classic;startArrow=classic;html=1;rounded=0;exitX=0.5;exitY=1;exitDx=0;exitDy=0;" parent="1" source="swX60O9HYar3Z6o1-5GI-16" edge="1">
          <mxGeometry width="50" height="50" relative="1" as="geometry">
            <mxPoint x="3913" y="1981" as="sourcePoint" />
            <mxPoint x="3400" y="2220" as="targetPoint" />
            <Array as="points">
              <mxPoint x="3929" y="2140" />
              <mxPoint x="3930" y="2220" />
            </Array>
          </mxGeometry>
        </mxCell>
        <mxCell id="swX60O9HYar3Z6o1-5GI-18" value="LEITURA" style="edgeLabel;html=1;align=center;verticalAlign=middle;resizable=0;points=[];" parent="swX60O9HYar3Z6o1-5GI-17" connectable="0" vertex="1">
          <mxGeometry x="0.1232" relative="1" as="geometry">
            <mxPoint y="-1" as="offset" />
          </mxGeometry>
        </mxCell>
        <mxCell id="swX60O9HYar3Z6o1-5GI-19" value="" style="endArrow=classic;startArrow=classic;html=1;rounded=0;entryX=0.996;entryY=0.327;entryDx=0;entryDy=0;exitX=0.5;exitY=0;exitDx=0;exitDy=0;entryPerimeter=0;" parent="1" source="swX60O9HYar3Z6o1-5GI-16" target="CX8ekr87qEy7F5eOEZGb-818" edge="1">
          <mxGeometry width="50" height="50" relative="1" as="geometry">
            <mxPoint x="3406" y="2000" as="sourcePoint" />
            <mxPoint x="3734" y="1830" as="targetPoint" />
            <Array as="points">
              <mxPoint x="3929" y="1810" />
            </Array>
          </mxGeometry>
        </mxCell>
        <mxCell id="swX60O9HYar3Z6o1-5GI-20" value="OBJECT JAVA" style="edgeLabel;html=1;align=center;verticalAlign=middle;resizable=0;points=[];" parent="swX60O9HYar3Z6o1-5GI-19" connectable="0" vertex="1">
          <mxGeometry x="-0.6224" y="2" relative="1" as="geometry">
            <mxPoint x="2" y="65" as="offset" />
          </mxGeometry>
        </mxCell>
      </root>
    </mxGraphModel>
  </diagram>
</mxfile>
